<svg xmlns="http://www.w3.org/2000/svg" xmlns:xlink="http://www.w3.org/1999/xlink" contentStyleType="text/css" data-diagram-type="CLASS" height="491px" preserveAspectRatio="none" style="width:793px;height:491px;background:#F9F9F9;" version="1.1" viewBox="0 0 793 491" width="793px" zoomAndPan="magnify"><defs/><g><rect fill="#F9F9F9" height="491" style="stroke:none;stroke-width:1;" width="793" x="0" y="0"/><!--class EventManager--><g class="entity" data-entity="EventManager" data-source-line="7" data-uid="ent0002" id="entity_EventManager"><rect fill="#F1F1F1" height="96.8906" rx="3.5" ry="3.5" style="stroke:#181818;stroke-width:0.5;" width="422.8398" x="7" y="246.08"/><ellipse cx="163.4336" cy="262.08" fill="#B4A7E5" rx="11" ry="11" style="stroke:#181818;stroke-width:1;"/><path d="M159.3555,257.8456 L159.3555,255.6894 L166.7461,255.6894 L166.7461,257.8456 L164.2773,257.8456 L164.2773,265.9238 L166.7461,265.9238 L166.7461,268.08 L159.3555,268.08 L159.3555,265.9238 L161.8242,265.9238 L161.8242,257.8456 L159.3555,257.8456 Z " fill="#000000"/><text fill="#000000" font-family="sans-serif" font-size="14" font-style="italic" lengthAdjust="spacing" textLength="101.4727" x="183.9336" y="266.9267">EventManager</text><line style="stroke:#181818;stroke-width:0.5;" x1="8" x2="428.8398" y1="278.08" y2="278.08"/><line style="stroke:#181818;stroke-width:0.5;" x1="8" x2="428.8398" y1="286.08" y2="286.08"/><ellipse cx="18" cy="299.7284" fill="#84BE84" rx="3" ry="3" style="stroke:#038048;stroke-width:1;"/><text fill="#000000" font-family="sans-serif" font-size="14" lengthAdjust="spacing" textLength="379.0938" x="27" y="303.0751">subscribe(eventType : String, listener : EventListener)</text><ellipse cx="18" cy="316.0253" fill="#84BE84" rx="3" ry="3" style="stroke:#038048;stroke-width:1;"/><text fill="#000000" font-family="sans-serif" font-size="14" lengthAdjust="spacing" textLength="396.8398" x="27" y="319.372">unsubscribe(eventType : String, listener : EventListener)</text><ellipse cx="18" cy="332.3222" fill="#84BE84" rx="3" ry="3" style="stroke:#038048;stroke-width:1;"/><text fill="#000000" font-family="sans-serif" font-size="14" lengthAdjust="spacing" textLength="276.3975" x="27" y="335.6689">notify(eventType : String, data : String)</text></g><!--class EventListener--><g class="entity" data-entity="EventListener" data-source-line="14" data-uid="ent0003" id="entity_EventListener"><rect fill="#F1F1F1" height="64.2969" rx="3.5" ry="3.5" style="stroke:#181818;stroke-width:0.5;" width="202.6748" x="465.08" y="262.38"/><ellipse cx="513.9501" cy="278.38" fill="#B4A7E5" rx="11" ry="11" style="stroke:#181818;stroke-width:1;"/><path d="M509.872,274.1456 L509.872,271.9894 L517.2626,271.9894 L517.2626,274.1456 L514.7939,274.1456 L514.7939,282.2238 L517.2626,282.2238 L517.2626,284.38 L509.872,284.38 L509.872,282.2238 L512.3407,282.2238 L512.3407,274.1456 L509.872,274.1456 Z " fill="#000000"/><text fill="#000000" font-family="sans-serif" font-size="14" font-style="italic" lengthAdjust="spacing" textLength="96.4346" x="534.4501" y="283.2267">EventListener</text><line style="stroke:#181818;stroke-width:0.5;" x1="466.08" x2="666.7548" y1="294.38" y2="294.38"/><line style="stroke:#181818;stroke-width:0.5;" x1="466.08" x2="666.7548" y1="302.38" y2="302.38"/><ellipse cx="476.08" cy="316.0284" fill="#84BE84" rx="3" ry="3" style="stroke:#038048;stroke-width:1;"/><text fill="#000000" font-family="sans-serif" font-size="14" lengthAdjust="spacing" textLength="176.6748" x="485.08" y="319.3751">update(filename : String)</text></g><!--class Editor--><g class="entity" data-entity="Editor" data-source-line="19" data-uid="ent0004" id="entity_Editor"><rect fill="#F1F1F1" height="162.0781" rx="3.5" ry="3.5" style="stroke:#181818;stroke-width:0.5;" width="422.8398" x="258" y="7"/><ellipse cx="444.4536" cy="23" fill="#ADD1B2" rx="11" ry="11" style="stroke:#181818;stroke-width:1;"/><path d="M447.4224,28.6406 Q446.8442,28.9375 446.2036,29.0781 Q445.563,29.2344 444.8599,29.2344 Q442.3599,29.2344 441.0317,27.5938 Q439.7192,25.9375 439.7192,22.8125 Q439.7192,19.6875 441.0317,18.0313 Q442.3599,16.375 444.8599,16.375 Q445.563,16.375 446.2036,16.5313 Q446.8599,16.6875 447.4224,16.9844 L447.4224,19.7031 Q446.7974,19.125 446.2036,18.8594 Q445.6099,18.5781 444.9849,18.5781 Q443.6411,18.5781 442.9536,19.6563 Q442.2661,20.7188 442.2661,22.8125 Q442.2661,24.9063 442.9536,25.9844 Q443.6411,27.0469 444.9849,27.0469 Q445.6099,27.0469 446.2036,26.7813 Q446.7974,26.5 447.4224,25.9219 L447.4224,28.6406 Z " fill="#000000"/><text fill="#000000" font-family="sans-serif" font-size="14" lengthAdjust="spacing" textLength="41.4326" x="464.9536" y="27.8467">Editor</text><line style="stroke:#181818;stroke-width:0.5;" x1="259" x2="679.8398" y1="39" y2="39"/><rect fill="none" height="6" style="stroke:#C82930;stroke-width:1;" width="6" x="266" y="49.6484"/><text fill="#000000" font-family="sans-serif" font-size="14" lengthAdjust="spacing" textLength="217.6973" x="278" y="55.9951">listeners : List&lt;EventListener&gt;</text><line style="stroke:#181818;stroke-width:0.5;" x1="259" x2="679.8398" y1="63.2969" y2="63.2969"/><ellipse cx="269" cy="76.9453" fill="#84BE84" rx="3" ry="3" style="stroke:#038048;stroke-width:1;"/><text fill="#000000" font-family="sans-serif" font-size="14" lengthAdjust="spacing" textLength="52.3564" x="278" y="80.292">Editor()</text><ellipse cx="269" cy="93.2422" fill="#84BE84" rx="3" ry="3" style="stroke:#038048;stroke-width:1;"/><text fill="#000000" font-family="sans-serif" font-size="14" lengthAdjust="spacing" textLength="70.3076" x="278" y="96.5889">openFile()</text><ellipse cx="269" cy="109.5391" fill="#84BE84" rx="3" ry="3" style="stroke:#038048;stroke-width:1;"/><text fill="#000000" font-family="sans-serif" font-size="14" lengthAdjust="spacing" textLength="68.1406" x="278" y="112.8857">saveFile()</text><ellipse cx="269" cy="125.8359" fill="#84BE84" rx="3" ry="3" style="stroke:#038048;stroke-width:1;"/><text fill="#000000" font-family="sans-serif" font-size="14" lengthAdjust="spacing" textLength="379.0938" x="278" y="129.1826">subscribe(eventType : String, listener : EventListener)</text><ellipse cx="269" cy="142.1328" fill="#84BE84" rx="3" ry="3" style="stroke:#038048;stroke-width:1;"/><text fill="#000000" font-family="sans-serif" font-size="14" lengthAdjust="spacing" textLength="396.8398" x="278" y="145.4795">unsubscribe(eventType : String, listener : EventListener)</text><ellipse cx="269" cy="158.4297" fill="#84BE84" rx="3" ry="3" style="stroke:#038048;stroke-width:1;"/><text fill="#000000" font-family="sans-serif" font-size="14" lengthAdjust="spacing" textLength="276.3975" x="278" y="161.7764">notify(eventType : String, data : String)</text></g><!--class EmailAlertsListener--><g class="entity" data-entity="EmailAlertsListener" data-source-line="30" data-uid="ent0005" id="entity_EmailAlertsListener"><rect fill="#F1F1F1" height="64.2969" rx="3.5" ry="3.5" style="stroke:#181818;stroke-width:0.5;" width="202.6748" x="346.08" y="419.97"/><ellipse cx="376.7786" cy="435.97" fill="#ADD1B2" rx="11" ry="11" style="stroke:#181818;stroke-width:1;"/><path d="M379.7473,441.6106 Q379.1692,441.9075 378.5286,442.0481 Q377.888,442.2044 377.1848,442.2044 Q374.6848,442.2044 373.3567,440.5637 Q372.0442,438.9075 372.0442,435.7825 Q372.0442,432.6575 373.3567,431.0012 Q374.6848,429.345 377.1848,429.345 Q377.888,429.345 378.5286,429.5012 Q379.1848,429.6575 379.7473,429.9544 L379.7473,432.6731 Q379.1223,432.095 378.5286,431.8294 Q377.9348,431.5481 377.3098,431.5481 Q375.9661,431.5481 375.2786,432.6262 Q374.5911,433.6887 374.5911,435.7825 Q374.5911,437.8762 375.2786,438.9544 Q375.9661,440.0169 377.3098,440.0169 Q377.9348,440.0169 378.5286,439.7512 Q379.1223,439.47 379.7473,438.8919 L379.7473,441.6106 Z " fill="#000000"/><text fill="#000000" font-family="sans-serif" font-size="14" lengthAdjust="spacing" textLength="135.7891" x="394.2672" y="440.8167">EmailAlertsListener</text><line style="stroke:#181818;stroke-width:0.5;" x1="347.08" x2="547.7548" y1="451.97" y2="451.97"/><line style="stroke:#181818;stroke-width:0.5;" x1="347.08" x2="547.7548" y1="459.97" y2="459.97"/><ellipse cx="357.08" cy="473.6184" fill="#84BE84" rx="3" ry="3" style="stroke:#038048;stroke-width:1;"/><text fill="#000000" font-family="sans-serif" font-size="14" lengthAdjust="spacing" textLength="176.6748" x="366.08" y="476.9651">update(filename : String)</text></g><!--class LoggingListener--><g class="entity" data-entity="LoggingListener" data-source-line="34" data-uid="ent0006" id="entity_LoggingListener"><rect fill="#F1F1F1" height="64.2969" rx="3.5" ry="3.5" style="stroke:#181818;stroke-width:0.5;" width="202.6748" x="584.08" y="419.97"/><ellipse cx="625.4314" cy="435.97" fill="#ADD1B2" rx="11" ry="11" style="stroke:#181818;stroke-width:1;"/><path d="M628.4001,441.6106 Q627.822,441.9075 627.1814,442.0481 Q626.5407,442.2044 625.8376,442.2044 Q623.3376,442.2044 622.0095,440.5637 Q620.697,438.9075 620.697,435.7825 Q620.697,432.6575 622.0095,431.0012 Q623.3376,429.345 625.8376,429.345 Q626.5407,429.345 627.1814,429.5012 Q627.8376,429.6575 628.4001,429.9544 L628.4001,432.6731 Q627.7751,432.095 627.1814,431.8294 Q626.5876,431.5481 625.9626,431.5481 Q624.6189,431.5481 623.9314,432.6262 Q623.2439,433.6887 623.2439,435.7825 Q623.2439,437.8762 623.9314,438.9544 Q624.6189,440.0169 625.9626,440.0169 Q626.5876,440.0169 627.1814,439.7512 Q627.7751,439.47 628.4001,438.8919 L628.4001,441.6106 Z " fill="#000000"/><text fill="#000000" font-family="sans-serif" font-size="14" lengthAdjust="spacing" textLength="112.1162" x="645.2872" y="440.8167">LoggingListener</text><line style="stroke:#181818;stroke-width:0.5;" x1="585.08" x2="785.7548" y1="451.97" y2="451.97"/><line style="stroke:#181818;stroke-width:0.5;" x1="585.08" x2="785.7548" y1="459.97" y2="459.97"/><ellipse cx="595.08" cy="473.6184" fill="#84BE84" rx="3" ry="3" style="stroke:#038048;stroke-width:1;"/><text fill="#000000" font-family="sans-serif" font-size="14" lengthAdjust="spacing" textLength="176.6748" x="604.08" y="476.9651">update(filename : String)</text></g><!--link Editor to EventManager--><g class="link" data-entity-1="Editor" data-entity-2="EventManager" data-source-line="39" data-uid="lnk7" id="link_Editor_EventManager"><path codeLine="39" d="M370.58,169.57 C338.89,195.38 304.82,223.14 276.97,245.83" fill="none" id="Editor-EventManager" style="stroke:#191919;stroke-width:1;"/><text fill="#000000" font-family="sans-serif" font-size="13" lengthAdjust="spacing" textLength="76.9082" x="330.42" y="212.1469">implements</text><text fill="#000000" font-family="sans-serif" font-size="13" lengthAdjust="spacing" textLength="8.271" x="354.0748" y="189.0153">1</text><text fill="#000000" font-family="sans-serif" font-size="13" lengthAdjust="spacing" textLength="8.271" x="276.6602" y="235.0038">1</text></g><!--link Editor to EventListener--><g class="link" data-entity-1="Editor" data-entity-2="EventListener" data-source-line="40" data-uid="lnk8" id="link_Editor_EventListener"><path codeLine="40" d="M456.4888,181.4755 C456.9288,197.5255 459.43,201.82 466.42,216.08 C475.51,234.62 486.5524,246.4443 503.0324,258.4643" fill="none" id="Editor-EventListener" style="stroke:#191919;stroke-width:1;"/><polygon fill="none" points="456.16,169.48,452.3259,175.5874,456.4888,181.4755,460.3229,175.3681,456.16,169.48" style="stroke:#191919;stroke-width:1;"/><polygon fill="#191919" points="507.88,262,502.9657,253.4648,503.8404,259.0536,498.2515,259.9282,507.88,262" style="stroke:#191919;stroke-width:1;"/><text fill="#000000" font-family="sans-serif" font-size="13" lengthAdjust="spacing" textLength="55.4468" x="467.42" y="212.1469">listeners</text><text fill="#000000" font-family="sans-serif" font-size="13" lengthAdjust="spacing" textLength="36.5625" x="456.8671" y="251.1994">many</text></g><!--link Editor to EventListener--><g class="link" data-entity-1="Editor" data-entity-2="EventListener" data-source-line="45" data-uid="lnk11" id="link_Editor_EventListener"><path codeLine="45" d="M512.9,169.44 C517.93,179.35 522.88,189.4 527.42,199.08 C537.13,219.8 544.7462,238.0434 552.1062,256.5834" fill="none" id="Editor-to-EventListener" style="stroke:#191919;stroke-width:1;"/><polygon fill="#191919" points="554.32,262.16,554.717,252.3191,552.4752,257.5128,547.2815,255.2709,554.32,262.16" style="stroke:#191919;stroke-width:1;"/><text fill="#000000" font-family="sans-serif" font-size="13" lengthAdjust="spacing" textLength="187.1924" x="535.42" y="212.1469">subscribe/unsubscribe/notify</text></g><!--reverse link EventListener to EmailAlertsListener--><g class="link" data-entity-1="EventListener" data-entity-2="EmailAlertsListener" data-source-line="41" data-uid="lnk9" id="link_EventListener_EmailAlertsListener"><path codeLine="41" d="M531.4049,341.3077 C510.7549,368.3077 492.1,392.7 471.47,419.68" fill="none" id="EventListener-backto-EmailAlertsListener" style="stroke:#191919;stroke-width:1;stroke-dasharray:7,7;"/><polygon fill="none" points="542.34,327.01,526.639,337.6627,536.1708,344.9527,542.34,327.01" style="stroke:#191919;stroke-width:1;"/><text fill="#000000" font-family="sans-serif" font-size="13" lengthAdjust="spacing" textLength="76.9082" x="508.42" y="386.0369">implements</text></g><!--reverse link EventListener to LoggingListener--><g class="link" data-entity-1="EventListener" data-entity-2="LoggingListener" data-source-line="42" data-uid="lnk10" id="link_EventListener_LoggingListener"><path codeLine="42" d="M601.4351,341.3077 C622.0851,368.3077 640.74,392.7 661.37,419.68" fill="none" id="EventListener-backto-LoggingListener" style="stroke:#191919;stroke-width:1;stroke-dasharray:7,7;"/><polygon fill="none" points="590.5,327.01,596.6692,344.9527,606.201,337.6627,590.5,327.01" style="stroke:#191919;stroke-width:1;"/><text fill="#000000" font-family="sans-serif" font-size="13" lengthAdjust="spacing" textLength="76.9082" x="638.42" y="386.0369">implements</text></g><!--SRC=[rLF1Ri8m3BtdAq8l0sq5xLeXf0gLQH9Z4l03QN5BfjQfuXG9RVltfIifj711EosNoB6VxVVi3CmU2k25qCJOO0UfHE3hQBuDLo_BY2Uv86hVNrVRQBq8vn6NQ42d8W767lYcYZyWCUpiZWw0vasWo43pJyRjUQGgfaJB68PGUxV74dZ0DqPBp9vuBia0skYW0IzFzgW1L_WdE2eZq-DDv4uOqPeZzbqJUey9z05qdv7BwYXLfKN3C9Kve2YWdsQkCD5WmEbpbZNQIQDS6jyrJpP1NMBQAJPhQZMGuOcGAW4NjgopIHoWO_yViPrAJdIwrAaGCWzpq8RkqlwSOQcopBxUERarvC98XRIN9R7JjBndZ_l-xzNPxu3BeipjBqBJnYhVdt6l47ZqUgiJjFBPu8vd-ZKUtsJSBN2DwNFin5is8P5AP4F8DLZtrs-idVhaOWCcpJX_0000]--></g></svg>